<?xml version="1.0" standalone="no"?>
<!DOCTYPE svg PUBLIC "-//W3C//DTD SVG 20010904//EN"
 "http://www.w3.org/TR/2001/REC-SVG-20010904/DTD/svg10.dtd">
<svg version="1.0" xmlns="http://www.w3.org/2000/svg"
 width="640.000000pt" height="640.000000pt" viewBox="0 0 640.000000 640.000000"
 preserveAspectRatio="xMidYMid meet">

<g transform="translate(0.000000,640.000000) scale(0.100000,-0.100000)"
fill="#000000" stroke="none">
<path d="M2942 5259 c-564 -47 -1107 -344 -1459 -799 -103 -134 -207 -308
-258 -432 l-24 -58 155 0 c119 0 154 3 154 13 0 7 29 61 65 121 269 448 688
744 1205 853 110 23 149 26 330 27 215 1 274 -6 455 -50 322 -80 602 -241 842
-485 237 -241 392 -521 468 -843 26 -110 51 -283 43 -292 -3 -3 -90 -5 -194
-5 -103 0 -192 -3 -197 -6 -5 -3 112 -127 259 -274 l269 -269 267 267 c148
148 268 272 268 276 0 5 -8 7 -17 6 -10 -1 -98 -1 -195 0 l-177 1 -6 58 c-14
128 -47 301 -75 400 -239 827 -974 1425 -1832 1492 -140 11 -201 11 -346 -1z"/>
<path d="M3242 4118 c-5 -7 -13 -53 -17 -103 -11 -127 -11 -128 -86 -144 -186
-38 -303 -161 -316 -333 -9 -125 30 -235 110 -305 54 -48 110 -77 240 -127
211 -82 247 -110 255 -199 6 -70 -14 -108 -75 -144 -42 -24 -60 -28 -149 -31
-116 -5 -177 9 -286 64 -37 19 -74 34 -82 34 -26 0 -36 -35 -36 -120 0 -78 2
-83 29 -109 32 -30 121 -66 189 -77 24 -4 46 -13 49 -20 3 -7 0 -61 -7 -120
-8 -76 -8 -110 0 -118 15 -15 143 -20 167 -7 16 8 22 25 27 83 4 40 9 94 13
119 l5 47 80 16 c160 32 273 109 330 224 32 64 33 72 33 182 0 105 -2 119 -27
165 -53 101 -144 163 -355 242 -175 65 -226 111 -226 200 0 75 43 117 142 135
79 15 166 0 279 -49 45 -19 89 -33 96 -30 34 13 26 197 -10 224 -26 19 -117
52 -165 59 -39 7 -40 8 -35 38 3 17 8 68 12 113 6 75 5 82 -14 92 -29 15 -157
14 -170 -1z"/>
<path d="M1075 3380 l-269 -270 204 -2 205 -3 8 -99 c23 -307 148 -671 321
-939 571 -885 1723 -1204 2661 -738 230 114 370 215 551 395 168 168 281 322
378 513 51 101 96 201 96 215 0 5 -64 7 -147 6 l-147 -3 -38 -74 c-119 -228
-264 -411 -453 -569 -344 -288 -783 -438 -1225 -419 -723 32 -1348 480 -1611
1156 -55 141 -104 363 -111 501 l-3 55 200 3 199 2 -269 270 c-149 149 -272
270 -275 270 -3 0 -126 -121 -275 -270z"/>
</g>
</svg>
